# File created by Blade
# Date/Time:  Thu Jan 22 19:29:39 2015
# Frame Rate: 120.000 fps
#------------------------------------------------------
:FULLY-SPECIFIED
:DEGREES
1307
root 2.357297 33.844515 1.324205 90.752228 -15.398133 -26.738155
RightUpLeg -6.222170 17.197203 -28.579819
RightLeg 150.904749 -0.000000 -0.000000
RightFoot 35.434582 5.473918 4.573963
RightToeBase -19.145344 -0.000000 0.000000
LeftUpLeg -92.395799 15.522067 7.323482
LeftLeg 30.910319 -0.000000 -0.000000
LeftFoot -25.715193 11.131373 -10.211715
LeftToeBase 7.268294 -0.000000 -0.000000
Spine -18.740984 -5.900885 0.414283
RightShoulder -17.932124 -34.760346 -16.265123
RightArm 8.494497 -63.689215 63.006318
RightForeArm 36.202366 0.000000 41.408156
RightHand -10.283796 -0.000000 13.725905
RightHandThumb1 -24.326973 -0.000000 -32.862282
LeftShoulder -34.089008 7.390332 33.680375
LeftArm 157.128521 -42.208111 -117.873072
LeftForeArm -12.951278 -0.000000 60.852142
LeftHand -14.986437 -0.000000 11.024521
LeftHandThumb1 -26.253704 0.000000 33.147579
Head -10.952184 29.448879 -14.369548
1308
root 2.354296 33.843633 1.328828 90.737147 -15.344572 -26.740016
RightUpLeg -6.272131 17.258808 -28.623999
RightLeg 150.917638 -0.000000 -0.000000
RightFoot 35.461410 5.494873 4.542987
RightToeBase -19.366984 -0.000000 0.000000
LeftUpLeg -92.409440 15.531717 7.326707
LeftLeg 30.938388 -0.000000 -0.000000
LeftFoot -25.710102 11.124733 -10.196908
LeftToeBase 7.211968 -0.000000 -0.000000
Spine -18.739716 -5.880344 0.427280
RightShoulder -17.901222 -34.721425 -16.303399
RightArm 8.513293 -63.746349 62.961918
RightForeArm 36.266194 0.000000 41.442099
RightHand -10.338410 0.000000 13.778280
RightHandThumb1 -24.326973 -0.000000 -32.862282
LeftShoulder -34.096855 7.386260 33.672710
LeftArm 157.137785 -42.112831 -117.822480
LeftForeArm -12.857991 -0.000000 60.823257
LeftHand -14.959995 -0.000000 10.988155
LeftHandThumb1 -26.253704 0.000000 33.147579
Head -10.967824 29.423249 -14.385943
1309
root 2.352207 33.839411 1.333665 90.712852 -15.297033 -26.699964
RightUpLeg -6.274115 17.284990 -28.669207
RightLeg 150.909004 -0.000000 -0.000000
RightFoot 35.464671 5.535069 4.486117
RightToeBase -19.446320 -0.000000 0.000000
LeftUpLeg -92.428221 15.493965 7.304946
LeftLeg 30.957808 -0.000000 -0.000000
LeftFoot -25.726605 11.126342 -10.156135
LeftToeBase 7.234772 -0.000000 -0.000000
Spine -18.753692 -5.887912 0.442766
RightShoulder -17.870514 -34.713239 -16.355370
RightArm 8.508723 -63.783620 62.942484
RightForeArm 36.260660 -0.000000 41.501805
RightHand -10.326264 -0.000000 13.660501
RightHandThumb1 -24.326973 -0.000000 -32.862282
LeftShoulder -34.085552 7.391820 33.674988
LeftArm 157.131630 -42.049802 -117.788177
LeftForeArm -12.855224 0.000000 60.825715
LeftHand -14.979725 -0.000000 11.034951
LeftHandThumb1 -26.253704 0.000000 33.147579
Head -10.968459 29.378812 -14.424317
1310
root 2.348216 33.836434 1.338104 90.679492 -15.236365 -26.656784
RightUpLeg -6.261436 17.321596 -28.679862
RightLeg 150.904030 -0.000000 -0.000000
RightFoot 35.452159 5.564628 4.457477
RightToeBase -19.594368 -0.000000 0.000000
LeftUpLeg -92.433482 15.461631 7.332697
LeftLeg 30.980673 -0.000000 -0.000000
LeftFoot -25.710363 11.086920 -10.155560
LeftToeBase 7.166460 -0.000000 -0.000000
Spine -18.752727 -5.903732 0.480583
RightShoulder -17.834111 -34.702321 -16.410597
RightArm 8.469971 -63.781135 62.968043
RightForeArm 36.245217 -0.000000 41.536002
RightHand -10.336588 0.000000 13.575922
RightHandThumb1 -24.326973 -0.000000 -32.862282
LeftShoulder -34.082422 7.398114 33.654493
LeftArm 157.138299 -41.997612 -117.763920
LeftForeArm -12.862481 0.000000 60.837563
LeftHand -14.987752 0.000000 11.059616
LeftHandThumb1 -26.253704 0.000000 33.147579
Head -11.000468 29.422290 -14.531945
1311
root 2.341869 33.832093 1.342312 90.625106 -15.170048 -26.603011
RightUpLeg -6.218202 17.353724 -28.670949
RightLeg 150.890308 -0.000000 -0.000000
RightFoot 35.467887 5.562419 4.471866
RightToeBase -19.662468 -0.000000 0.000000
LeftUpLeg -92.419944 15.418675 7.358180
LeftLeg 31.004319 -0.000000 -0.000000
LeftFoot -25.739149 11.067286 -10.151487
LeftToeBase 7.200982 -0.000000 -0.000000
Spine -18.735166 -5.932910 0.513028
RightShoulder -17.799084 -34.700923 -16.451625
RightArm 8.436703 -63.735384 62.988854
RightForeArm 36.185332 -0.000000 41.559129
RightHand -10.397787 -0.000000 13.688829
RightHandThumb1 -24.326973 -0.000000 -32.862282
LeftShoulder -34.090285 7.420659 33.636279
LeftArm 157.155507 -41.936084 -117.746052
LeftForeArm -12.894839 0.000000 60.848782
LeftHand -14.994460 -0.000000 11.091471
LeftHandThumb1 -26.253704 0.000000 33.147579
Head -11.002153 29.426282 -14.574515
1312
root 2.336725 33.830323 1.346913 90.603807 -15.099817 -26.548924
RightUpLeg -6.210750 17.360275 -28.652936
RightLeg 150.881508 -0.000000 -0.000000
RightFoot 35.468410 5.542972 4.454578
RightToeBase -20.118661 -0.000000 0.000000
LeftUpLeg -92.427866 15.376590 7.429375
LeftLeg 31.021733 -0.000000 -0.000000
LeftFoot -25.736877 11.027538 -10.194731
LeftToeBase 7.235024 -0.000000 -0.000000
Spine -18.749784 -5.958297 0.548816
RightShoulder -17.786375 -34.696808 -16.473331
RightArm 8.412195 -63.713668 62.979113
RightForeArm 36.188911 -0.000000 41.591827
RightHand -10.347251 -0.000000 13.721839
RightHandThumb1 -24.326973 -0.000000 -32.862282
LeftShoulder -34.108708 7.461305 33.618788
LeftArm 157.184101 -41.825787 -117.755572
LeftForeArm -12.851857 0.000000 60.867366
LeftHand -15.009021 -0.000000 11.035157
LeftHandThumb1 -26.253704 0.000000 33.147579
Head -11.012258 29.430277 -14.621717
1313
root 2.332961 33.828293 1.352087 90.583994 -15.041807 -26.495339
RightUpLeg -6.215459 17.375652 -28.668595
RightLeg 150.872649 -0.000000 -0.000000
RightFoot 35.437315 5.586223 4.425294
RightToeBase -20.013702 -0.000000 0.000000
LeftUpLeg -92.437684 15.326668 7.480914
LeftLeg 31.040674 -0.000000 -0.000000
LeftFoot -25.726145 11.044170 -10.192899
LeftToeBase 7.200370 -0.000000 -0.000000
Spine -18.765350 -5.966727 0.581643
RightShoulder -17.787139 -34.764378 -16.497911
RightArm 8.495027 -63.629635 62.911863
RightForeArm 36.128773 -0.000000 41.610417
RightHand -10.351916 -0.000000 13.742035
RightHandThumb1 -24.326973 -0.000000 -32.862282
LeftShoulder -34.107099 7.459186 33.597289
LeftArm 157.179772 -41.782832 -117.736720
LeftForeArm -12.918679 -0.000000 60.885604
LeftHand -14.908772 0.000000 10.810428
LeftHandThumb1 -26.253704 0.000000 33.147579
Head -11.007006 29.416830 -14.683297
1314
root 2.328589 33.825884 1.355962 90.573640 -14.974015 -26.432125
RightUpLeg -6.220319 17.387546 -28.676430
RightLeg 150.854899 -0.000000 -0.000000
RightFoot 35.482981 5.534156 4.560065
RightToeBase -20.050785 -0.000000 0.000000
LeftUpLeg -92.475287 15.272899 7.536791
LeftLeg 31.080263 -0.000000 -0.000000
LeftFoot -25.724597 11.019295 -10.250601
LeftToeBase 7.245412 -0.000000 -0.000000
Spine -18.803859 -5.982710 0.610012
RightShoulder -17.797304 -34.754173 -16.520167
RightArm 8.472239 -63.665566 62.896843
RightForeArm 36.198761 -0.000000 41.653435
RightHand -10.316437 -0.000000 13.598328
RightHandThumb1 -24.326973 -0.000000 -32.862282
LeftShoulder -34.097035 7.488376 33.583426
LeftArm 157.210963 -41.742613 -117.725006
LeftForeArm -12.898952 -0.000000 60.875394
LeftHand -14.998984 -0.000000 11.022324
LeftHandThumb1 -26.253704 0.000000 33.147579
Head -10.963242 29.402514 -14.677059
1315
root 2.324530 33.823064 1.360792 90.547188 -14.923039 -26.380731
RightUpLeg -6.219893 17.418236 -28.693614
RightLeg 150.851201 -0.000000 -0.000000
RightFoot 35.446873 5.583668 4.441667
RightToeBase -19.932718 -0.000000 0.000000
LeftUpLeg -92.480334 15.220855 7.590511
LeftLeg 31.108900 -0.000000 -0.000000
LeftFoot -25.727141 11.034672 -10.270060
LeftToeBase 7.217082 -0.000000 -0.000000
Spine -18.808599 -5.976121 0.609156
RightShoulder -17.824479 -34.764063 -16.515749
RightArm 8.487552 -63.623197 62.866314
RightForeArm 36.061539 -0.000000 41.671323
RightHand -10.494290 0.000000 13.994167
RightHandThumb1 -24.326973 -0.000000 -32.862282
LeftShoulder -34.088034 7.490731 33.581945
LeftArm 157.235721 -41.705322 -117.716223
LeftForeArm -12.937658 -0.000000 60.860427
LeftHand -15.017264 -0.000000 11.007181
LeftHandThumb1 -26.253704 0.000000 33.147579
Head -10.967926 29.376662 -14.691509
1316
root 2.320290 33.820719 1.365810 90.522191 -14.877358 -26.347424
RightUpLeg -6.223074 17.444853 -28.721484
RightLeg 150.854299 -0.000000 -0.000000
RightFoot 35.432825 5.508639 4.524806
RightToeBase -19.949348 -0.000000 0.000000
LeftUpLeg -92.481607 15.186257 7.640487
LeftLeg 31.144682 -0.000000 -0.000000
LeftFoot -25.746471 11.041891 -10.303312
LeftToeBase 7.294605 -0.000000 -0.000000
Spine -18.807225 -5.965347 0.608154
RightShoulder -17.828849 -34.751748 -16.535759
RightArm 8.469406 -63.621693 62.875067
RightForeArm 36.115288 -0.000000 41.705829
RightHand -10.422047 0.000000 13.646449
RightHandThumb1 -24.326973 -0.000000 -32.862282
LeftShoulder -34.093334 7.501446 33.567908
LeftArm 157.275585 -41.681054 -117.709925
LeftForeArm -12.980590 -0.000000 60.825130
LeftHand -15.004889 0.000000 10.973248
LeftHandThumb1 -26.253704 0.000000 33.147579
Head -10.973544 29.368711 -14.706879
